<svg width="100" height="100" viewBox="0 0 100 100" fill="none" xmlns="http://www.w3.org/2000/svg">
<g id="Frame 1">
<path id="Ellipse 1" d="M100 50C100 77.6142 77.6142 100 50 100C22.3858 100 0 77.6142 0 50C0 22.3858 22.3858 0 50 0C77.6142 0 100 22.3858 100 50Z" fill="url(#paint0_linear)"/>
<path id="Ellipse 2" d="M122 44C122 16.938 94.6894 -5 61 -5C27.3106 -5 0 16.938 0 44C0 71.062 27.3106 93 61 93C94.6894 93 122 71.062 122 44Z" fill="url(#paint1_radial)"/>
</g>
<defs>
<linearGradient id="paint0_linear" x1="89" y1="79.5" x2="0" y2="0" gradientUnits="userSpaceOnUse">
<stop stop-color="#3B82F6"/>
<stop offset="1" stop-color="#93C5FD" stop-opacity="0"/>
</linearGradient>
<radialGradient id="paint1_radial" cx="0" cy="0" r="1" gradientUnits="userSpaceOnUse" gradientTransform="translate(48.8 41.1176) rotate(21.1958) scale(44.6437 38.4386)">
<stop stop-color="#D6E6F9" stop-opacity="0.74"/>
<stop offset="0.915862" stop-color="white" stop-opacity="0"/>
</radialGradient>
</defs>
</svg>
